# xmcd CD database file generated by OrangeCD 6.1
#
# Track frame offsets:
#	150
#	11512
#	23154
#	34425
#	45507
#	56145
#	64835
#	75947
#	86300
#	97592
#	110699
#	121996
#	132741
#	141182
#	152819
#	164440
#	176331
#	185853
#	195655
#	205025
#	217697
#	228295
#	241261
#	253975
#	264406
#	274667
#	285613
#
# Disc length: 3959 seconds
#
# Revision: 2
# Processed by: cddbd v1.5.2PL0 Copyright (c) Steve Scherf et al.
# Submitted via: OrangeCD 6.1
#
DISCID=770f751b
DTITLE=Patsy Cline - 50 Golden Greats: The Complete Early Years
DYEAR=2006
DGENRE=Country
TTITLE0=That Wonderful Someone
TTITLE1=In Case Of The Blues
TTITLE2=Hungry For Love
TTITLE3=I Can't Forget
TTITLE4=I Don't Wanta
TTITLE5=Ain't No Wheels On This Ship
TTITLE6=Stop The World
TTITLE7=Walking Dream
TTITLE8=Cry Not For Me
TTITLE9=If I Could See The World
TTITLE10=Just Out Of Reach
TTITLE11=I Can See An Angel
TTITLE12=Come On In
TTITLE13=Let The Teardrops Fall
TTITLE14=Never No More
TTITLE15=If I Could Only Stay Asleep
TTITLE16=I'm Moving Along
TTITLE17=I'm Blue Again
TTITLE18=Love Me, Love Me Honey Do
TTITLE19=Yes I Understand
TTITLE20=Gotta Lot Of Rhythm In My Soul
TTITLE21=Life's Railway To Heaven
TTITLE22=Just A Closer Walk With Thee
TTITLE23=Lovesick Blues
TTITLE24=How Can I Face Tomorrow
TTITLE25=There She Goes
TTITLE26=Crazy Dreams
EXTD=
EXTT0=
EXTT1=
EXTT2=
EXTT3=
EXTT4=
EXTT5=
EXTT6=
EXTT7=
EXTT8=
EXTT9=
EXTT10=
EXTT11=
EXTT12=
EXTT13=
EXTT14=
EXTT15=
EXTT16=
EXTT17=
EXTT18=
EXTT19=
EXTT20=
EXTT21=
EXTT22=
EXTT23=
EXTT24=
EXTT25=
EXTT26=
PLAYORDER=
